<?xml version="1.0" standalone="no"?>
<!DOCTYPE svg PUBLIC "-//W3C//DTD SVG 20010904//EN"
 "http://www.w3.org/TR/2001/REC-SVG-20010904/DTD/svg10.dtd">
<svg version="1.0" xmlns="http://www.w3.org/2000/svg"
 width="3072.000000pt" height="3072.000000pt" viewBox="0 0 3072.000000 3072.000000"
 preserveAspectRatio="xMidYMid meet">
<metadata>
Created by potrace 1.14, written by Peter Selinger 2001-2017
</metadata>
<g transform="translate(0.000000,3072.000000) scale(0.100000,-0.100000)"
fill="#000000" stroke="none">
<path d="M21120 26349 c-488 -46 -990 -146 -1340 -265 -41 -14 -95 -32 -120
-39 -25 -7 -67 -23 -95 -35 -27 -12 -68 -28 -90 -35 -95 -31 -187 -72 -425
-189 -172 -85 -235 -118 -297 -159 -24 -15 -45 -27 -48 -27 -3 0 -27 -15 -54
-32 -27 -18 -82 -54 -122 -80 -85 -54 -211 -141 -257 -178 -147 -115 -330
-276 -449 -394 -154 -152 -223 -230 -403 -458 -55 -70 -218 -310 -228 -337 -3
-9 -15 -29 -27 -46 -12 -16 -29 -43 -37 -60 -8 -16 -40 -76 -71 -132 -31 -56
-57 -107 -57 -115 0 -7 -9 -28 -20 -46 -21 -34 -27 -49 -102 -237 -43 -108
-50 -128 -97 -280 -41 -133 -78 -276 -92 -350 -6 -33 -19 -105 -29 -160 -42
-221 -45 -270 -44 -700 l0 -420 33 -195 c17 -107 44 -242 58 -300 14 -58 32
-132 39 -165 19 -87 70 -247 127 -405 85 -231 105 -277 218 -505 107 -213 155
-298 284 -504 53 -83 106 -160 119 -170 9 -8 16 -17 16 -22 0 -8 110 -161 155
-214 14 -16 66 -79 116 -140 81 -99 227 -260 334 -371 97 -100 281 -263 524
-466 19 -16 208 -158 241 -181 174 -121 325 -222 365 -241 34 -17 71 -44 64
-48 -2 -2 -40 -20 -84 -41 -230 -111 -638 -325 -643 -339 -2 -4 -12 -8 -22 -8
-10 0 -21 -4 -24 -9 -5 -8 -28 -5 -171 24 -210 44 -261 47 -635 47 -201 0
-408 -5 -460 -11 -218 -25 -425 -53 -580 -78 -91 -14 -191 -29 -223 -33 -149
-20 -458 -103 -637 -172 -194 -75 -422 -199 -474 -257 -11 -11 -24 -21 -30
-21 -28 0 -346 -327 -346 -356 0 -3 -11 -20 -26 -38 -33 -41 -90 -130 -111
-173 -12 -27 -21 -34 -37 -30 -158 37 -206 48 -291 70 -55 14 -163 39 -240 57
-77 17 -196 45 -265 61 -69 16 -150 33 -180 38 -30 5 -111 21 -180 36 -309 65
-359 75 -427 85 -71 10 -303 57 -308 62 -2 2 6 21 16 43 11 22 28 63 39 90 61
166 91 246 106 290 10 28 28 79 40 115 13 36 28 85 33 110 6 25 20 72 31 105
12 33 27 89 34 125 7 36 25 110 39 165 55 220 112 598 138 915 18 215 6 798
-21 990 -11 85 -25 193 -30 240 -21 210 -143 707 -244 1000 -38 108 -117 308
-173 435 -47 108 -232 476 -248 495 -7 8 -25 38 -39 65 -32 60 -137 230 -198
318 -11 16 -34 49 -51 75 -17 26 -35 50 -40 53 -5 4 -14 15 -20 27 -13 23
-147 200 -176 233 -19 23 -56 66 -94 111 -139 166 -393 422 -552 557 -60 52
-119 102 -130 112 -64 59 -233 190 -277 215 -10 6 -29 20 -41 31 -31 28 -292
202 -337 225 -14 7 -44 26 -67 41 -24 15 -45 27 -48 27 -3 0 -22 11 -43 25
-42 27 -82 49 -291 153 -182 91 -259 128 -289 137 -13 4 -50 20 -82 36 -33 16
-65 29 -73 29 -7 0 -35 11 -63 24 -27 13 -60 26 -74 30 -14 4 -68 22 -120 40
-125 44 -279 93 -310 99 -14 3 -65 17 -115 31 -142 40 -334 84 -410 95 -38 6
-117 20 -175 31 -58 11 -152 25 -210 30 -58 6 -163 17 -235 25 -179 22 -707
31 -910 16 -260 -19 -560 -53 -672 -77 -37 -8 -99 -19 -138 -24 -74 -10 -271
-56 -420 -97 -49 -14 -109 -29 -131 -33 -23 -5 -70 -19 -105 -31 -35 -12 -91
-29 -124 -39 -126 -38 -457 -164 -595 -227 -93 -42 -184 -84 -201 -93 -8 -4
-40 -20 -70 -35 -75 -38 -115 -58 -184 -95 -33 -18 -82 -45 -110 -60 -84 -45
-150 -83 -155 -90 -3 -4 -33 -22 -68 -41 -34 -18 -62 -37 -62 -41 0 -5 -6 -8
-13 -8 -8 0 -29 -12 -48 -26 -19 -14 -56 -39 -83 -57 -111 -72 -255 -174 -288
-205 -15 -13 -35 -30 -46 -36 -23 -13 -126 -94 -196 -154 -28 -24 -66 -55 -83
-70 -142 -117 -633 -604 -633 -628 0 -3 -15 -20 -32 -39 -47 -47 -55 -58 -146
-175 -45 -58 -91 -116 -102 -130 -21 -25 -66 -86 -130 -180 -19 -28 -50 -70
-67 -93 -18 -23 -33 -45 -33 -49 0 -4 -27 -48 -60 -97 -33 -50 -60 -93 -60
-97 0 -4 -11 -21 -24 -38 -13 -17 -35 -53 -50 -81 -53 -98 -59 -110 -67 -125
-5 -8 -26 -49 -48 -90 -21 -42 -43 -85 -49 -95 -20 -35 -142 -293 -142 -300 0
-3 -13 -34 -30 -69 -30 -65 -33 -74 -93 -236 -19 -52 -42 -112 -51 -134 -9
-21 -16 -46 -16 -55 0 -10 -12 -46 -26 -81 -14 -35 -34 -95 -44 -134 -10 -39
-27 -102 -38 -141 -58 -210 -136 -599 -152 -755 -5 -52 -17 -156 -25 -230 -34
-282 -30 -855 6 -1115 6 -38 14 -115 19 -169 10 -118 60 -387 101 -544 16 -62
29 -119 29 -127 0 -28 119 -404 161 -512 16 -40 29 -78 29 -85 0 -7 14 -40 30
-73 16 -33 30 -64 30 -69 0 -11 72 -175 100 -227 l19 -37 -57 -17 c-31 -10
-79 -28 -107 -40 -27 -13 -61 -26 -75 -29 -14 -4 -54 -20 -90 -35 -36 -16
-103 -45 -150 -65 -123 -53 -325 -152 -443 -216 -202 -110 -207 -113 -323
-186 -121 -77 -220 -142 -254 -169 -19 -14 -76 -57 -127 -94 -50 -38 -114 -88
-142 -111 l-51 -43 0 -338 0 -339 23 -5 c25 -5 460 -68 807 -115 124 -17 270
-37 325 -45 55 -7 152 -21 215 -29 63 -9 164 -23 224 -31 171 -24 278 -29 318
-16 49 16 104 74 122 129 47 135 -11 298 -129 368 -43 25 -133 41 -445 83
-143 19 -380 51 -485 66 -55 8 -206 28 -335 46 -129 17 -244 34 -254 38 -16 6
-2 20 78 80 382 285 878 545 1411 737 90 33 122 41 128 31 342 -558 558 -841
922 -1202 438 -436 896 -767 1445 -1044 640 -323 1270 -514 2000 -606 164 -20
559 -45 731 -45 661 0 1318 107 2004 329 591 190 1293 559 1820 956 378 284
819 707 1091 1045 249 310 449 604 619 910 111 202 104 191 128 185 12 -3 108
-21 214 -40 446 -81 942 -188 1421 -305 134 -33 249 -60 255 -60 7 0 18 -4 25
-9 17 -10 -12 -121 -45 -170 -48 -71 -55 -119 -60 -394 -4 -209 -2 -281 12
-380 68 -487 261 -828 585 -1032 226 -143 508 -227 1053 -315 507 -82 984 -86
1445 -12 80 13 115 16 120 8 24 -31 97 -211 157 -386 231 -666 251 -1426 58
-2114 l-28 -100 -90 -23 c-285 -72 -935 -214 -1160 -253 -874 -151 -1348 -209
-2105 -260 -489 -33 -1459 -33 -2000 0 -608 37 -1182 86 -1700 145 -673 77
-895 106 -1130 145 -403 67 -517 62 -861 -39 -59 -17 -120 -31 -136 -31 -31 0
-110 -38 -163 -79 -64 -49 -153 -99 -426 -234 -148 -74 -301 -154 -339 -177
-310 -189 -526 -448 -646 -774 -34 -90 -70 -236 -90 -366 -18 -109 -18 -447
-1 -560 81 -534 305 -1023 686 -1500 932 -1166 2332 -1958 4081 -2309 712
-143 1439 -219 2530 -263 414 -17 1807 -17 2140 0 402 20 911 61 1175 93 131
16 438 58 505 69 33 5 105 17 160 26 1298 211 2528 619 3590 1191 535 288
1106 659 1605 1042 130 100 480 382 540 436 19 18 76 67 125 110 652 570 1269
1225 1921 2040 455 568 908 1224 1180 1710 21 39 49 88 62 110 61 108 305 607
360 735 235 554 399 1128 427 1500 18 231 -57 497 -186 660 -185 234 -497 401
-900 481 -101 20 -144 23 -369 23 -219 0 -273 -3 -382 -22 -366 -63 -755 -204
-1193 -432 -157 -81 -306 -164 -825 -457 -2094 -1183 -3524 -1848 -5060 -2351
-388 -127 -898 -278 -908 -268 -3 3 4 50 16 103 67 303 86 489 85 843 0 243
-4 325 -21 462 -48 372 -126 676 -258 1010 -30 75 -54 141 -54 146 0 5 57 24
128 42 477 122 760 250 1052 473 134 103 443 412 541 542 248 327 379 606 420
894 14 103 6 293 -16 375 -57 212 -179 397 -363 548 -276 228 -577 430 -833
558 -54 28 -99 52 -99 55 0 6 442 228 616 309 l121 57 99 -47 c168 -78 195
-91 309 -139 1103 -472 2336 -636 3498 -465 936 137 1827 514 2512 1063 112
90 168 139 305 273 l96 92 113 -29 c359 -91 809 -242 1161 -389 235 -98 570
-254 570 -264 0 -3 -44 -25 -97 -51 -153 -72 -193 -121 -193 -238 0 -161 155
-301 315 -284 39 4 120 36 312 125 l258 120 35 -20 c214 -126 654 -442 900
-648 146 -122 340 -298 340 -309 0 -4 -48 -13 -107 -20 -60 -7 -160 -19 -223
-27 -138 -17 -354 -40 -505 -55 -60 -6 -134 -20 -164 -31 -108 -41 -181 -152
-181 -277 0 -103 39 -180 113 -222 52 -29 118 -30 337 -5 85 9 191 21 235 26
210 23 828 101 918 116 l37 6 0 287 0 286 -92 90 c-124 121 -239 228 -317 295
-35 30 -78 67 -95 82 -40 35 -157 130 -230 188 -31 25 -76 61 -100 80 -24 19
-83 62 -131 95 -48 33 -102 71 -119 85 -17 14 -59 44 -94 65 -34 22 -78 52
-97 66 l-35 27 44 26 c25 14 47 26 51 26 3 0 45 19 93 41 113 54 223 105 292
137 70 32 262 120 390 180 36 17 97 45 135 62 39 17 102 46 140 65 39 18 91
42 118 54 l47 21 0 305 0 305 -27 -6 c-16 -4 -53 -19 -83 -34 -30 -16 -80 -40
-110 -53 -100 -45 -273 -125 -450 -208 -36 -16 -93 -43 -128 -59 -34 -16 -90
-43 -125 -59 -34 -16 -87 -40 -117 -54 -126 -57 -438 -200 -470 -216 -19 -10
-66 -32 -105 -50 -38 -17 -97 -45 -130 -61 -33 -16 -81 -38 -108 -49 l-47 -20
-203 102 c-111 57 -245 122 -297 146 -52 24 -121 56 -153 72 -32 16 -63 29
-68 29 -6 0 -37 14 -71 30 -33 17 -64 30 -70 30 -5 0 -46 15 -91 34 -77 32
-116 47 -322 124 -44 16 -141 49 -215 72 -74 24 -157 51 -185 61 -27 11 -66
22 -85 25 -19 4 -77 20 -127 36 l-93 29 18 27 c9 15 25 34 34 44 23 23 228
323 228 333 0 3 14 24 30 47 17 22 30 45 30 50 0 4 11 26 25 48 28 44 165 313
165 323 0 4 16 40 35 81 19 41 35 79 35 85 0 5 10 31 21 58 12 26 30 75 39
108 10 33 27 87 39 120 60 173 137 538 162 770 17 167 23 600 10 745 -7 69
-16 170 -21 225 -5 55 -20 156 -33 225 -14 69 -28 143 -32 165 -15 94 -126
473 -170 580 -6 17 -19 50 -28 75 -50 142 -197 458 -301 645 -68 122 -90 161
-111 190 -12 17 -27 42 -35 57 -7 15 -20 36 -29 46 -9 10 -23 30 -31 44 -39
68 -103 158 -111 158 -5 0 -9 6 -9 13 0 7 -8 22 -17 33 -10 10 -51 63 -91 116
-193 260 -509 594 -797 845 -180 155 -383 314 -499 390 -22 14 -44 29 -50 34
-20 17 -81 58 -131 89 -27 17 -70 44 -95 60 -25 16 -63 39 -85 51 -22 12 -47
27 -55 34 -8 7 -42 28 -75 46 -33 18 -87 47 -120 65 -72 40 -346 177 -430 215
-33 15 -85 39 -115 52 -173 79 -486 194 -725 265 -200 60 -530 144 -620 158
-22 3 -106 19 -188 35 -81 16 -164 29 -185 29 -21 0 -83 7 -138 15 -239 35
-413 45 -798 44 -210 -1 -419 -5 -466 -10z m1070 -633 c69 -9 175 -23 235 -31
988 -139 1968 -541 2750 -1129 101 -76 260 -203 301 -241 6 -5 73 -66 148
-135 423 -387 785 -864 1043 -1375 292 -577 433 -1149 433 -1750 0 -831 -289
-1608 -838 -2250 -452 -529 -1117 -963 -1854 -1210 -817 -273 -1715 -340
-2618 -194 -724 118 -1442 373 -2065 734 -457 265 -799 528 -1165 895 -396
397 -673 778 -909 1250 -186 373 -312 748 -370 1100 -11 69 -25 157 -32 195
-6 39 -14 208 -16 377 -5 325 2 433 48 683 86 468 266 905 537 1305 479 707
1212 1238 2124 1541 381 126 854 221 1248 249 184 13 854 4 1000 -14z m-14070
-1785 c471 -52 812 -127 1230 -270 1482 -505 2627 -1629 3144 -3083 129 -363
210 -717 262 -1148 28 -227 25 -840 -5 -1085 -132 -1089 -545 -2042 -1260
-2905 -127 -153 -535 -560 -691 -690 -380 -314 -725 -538 -1165 -755 -561
-277 -1103 -448 -1705 -540 -492 -75 -1146 -75 -1640 0 -994 151 -1920 569
-2661 1202 -148 126 -409 387 -533 533 -504 590 -866 1290 -1056 2039 -52 204
-97 465 -126 731 -25 218 -25 751 0 975 77 712 261 1333 575 1940 275 530 597
970 1022 1394 465 464 986 834 1574 1116 651 313 1317 496 2020 554 72 6 146
13 165 15 19 2 177 3 350 1 233 -2 363 -9 500 -24z m9873 -7180 c261 -18 595
-112 832 -233 148 -76 289 -163 498 -305 173 -119 179 -124 282 -227 216 -217
220 -401 14 -751 -102 -173 -243 -351 -418 -526 -208 -207 -415 -350 -621
-428 -47 -18 -51 -18 -45 -3 3 9 16 51 27 92 37 135 197 644 233 740 13 36 44
126 69 200 25 74 57 168 71 207 44 127 28 212 -55 286 -63 57 -101 71 -205 71
-73 0 -97 -4 -130 -22 -91 -49 -113 -83 -182 -280 -111 -319 -228 -680 -299
-919 -11 -35 -22 -63 -25 -63 -3 0 -26 24 -50 52 -194 231 -548 576 -739 720
-119 90 -258 169 -350 198 -199 63 -330 22 -418 -133 -46 -81 -59 -142 -47
-222 14 -97 132 -182 261 -189 29 -1 60 -9 69 -16 10 -8 25 -19 35 -25 67 -40
251 -170 330 -234 130 -104 390 -365 486 -486 110 -139 154 -198 154 -206 0
-4 -30 -10 -67 -14 -38 -4 -112 -13 -165 -21 -490 -71 -907 -53 -1428 62 -346
76 -506 127 -615 199 -67 44 -69 45 -152 45 -93 0 -141 15 -186 58 -100 95
-116 266 -36 380 l30 42 -16 93 c-9 50 -18 146 -21 212 -2 66 -10 150 -16 188
-10 60 -9 76 11 149 85 320 285 659 539 915 175 177 331 290 412 300 70 8 113
-3 166 -43 l46 -35 66 19 c97 29 382 88 487 102 50 6 140 18 200 27 211 29
712 41 968 24z m6449 -3815 c83 -160 55 -541 -53 -733 -93 -164 -256 -251
-414 -222 -132 24 -238 94 -353 231 -83 99 -182 238 -182 255 0 7 19 22 43 34
51 26 417 227 562 310 22 12 90 50 150 85 61 34 130 73 155 88 51 29 52 29 92
-48z m-2343 -1179 c10 -23 29 -110 41 -192 20 -124 24 -191 24 -391 l1 -241
-39 -77 c-44 -86 -106 -150 -184 -188 -36 -18 -64 -23 -122 -23 -66 0 -85 5
-160 39 -210 96 -366 202 -519 350 -86 84 -228 252 -220 261 2 2 38 17 79 33
196 78 685 290 935 406 77 35 141 65 143 65 1 1 11 -18 21 -42z m4736 -410
c21 -8 40 -18 42 -23 6 -17 -365 -614 -381 -614 -19 0 -88 89 -108 140 -30 76
-36 201 -13 272 32 97 86 166 165 208 73 39 208 47 295 17z m-16293 -1342
c193 -24 583 -68 821 -91 77 -7 77 -6 51 -114 -41 -176 -170 -360 -319 -456
-153 -97 -309 -86 -435 32 -124 116 -246 382 -266 579 -8 77 -21 72 148 50z
m1408 -145 c69 -5 202 -15 295 -21 94 -7 173 -15 178 -19 10 -8 -20 -106 -46
-150 -73 -124 -204 -182 -362 -159 -85 12 -129 35 -188 98 -59 63 -87 127 -95
210 l-5 63 49 -6 c27 -4 105 -11 174 -16z m12317 -955 c65 -9 154 -22 198 -31
94 -19 311 -89 408 -133 58 -26 67 -33 58 -48 -29 -54 -676 -693 -884 -873
l-38 -33 -70 69 c-118 117 -203 255 -252 409 -108 342 -61 560 134 623 35 12
75 23 89 25 60 10 248 6 357 -8z m-1007 -1149 c99 -34 147 -59 251 -128 110
-74 164 -121 155 -136 -8 -13 -266 -221 -432 -348 -232 -176 -617 -444 -640
-444 -24 0 -79 78 -108 151 -48 124 -68 216 -69 319 -1 113 13 179 61 280 71
151 245 285 422 325 98 22 264 13 360 -19z m-11771 -1576 c253 -42 420 -266
487 -655 15 -88 18 -385 4 -399 -9 -8 -397 81 -610 141 -253 70 -555 167 -573
183 -17 15 131 325 218 455 62 93 170 202 235 235 38 20 126 46 165 49 6 1 39
-4 74 -9z m1491 -696 c207 -47 350 -245 350 -483 0 -56 -3 -71 -15 -71 -55 0
-579 64 -789 96 -87 13 -161 24 -163 24 -18 0 12 116 47 187 64 129 155 207
284 244 77 22 197 24 286 3z"/>
<path d="M24730 22264 c-151 -197 -159 -210 -160 -241 0 -16 -6 -23 -20 -23
-26 0 -127 36 -265 95 -176 74 -309 122 -405 146 -78 19 -98 21 -155 11 -79
-13 -190 -66 -218 -104 -19 -26 -19 -30 -4 -90 27 -110 79 -230 134 -310 29
-44 53 -81 53 -83 0 -2 -38 -73 -85 -157 -47 -84 -85 -159 -85 -165 0 -10 49
-13 210 -13 l210 0 -7 -42 c-4 -24 -7 -101 -7 -173 -1 -115 2 -137 23 -190 59
-146 201 -313 309 -363 69 -31 155 -35 195 -9 39 26 55 55 81 150 25 95 42
125 84 156 l29 20 108 -69 c126 -80 185 -103 313 -122 l92 -14 11 41 c6 22 14
56 20 75 15 59 10 109 -21 200 -40 116 -47 190 -26 263 31 106 118 188 261
243 84 32 90 37 108 91 l14 42 -31 12 c-17 7 -117 54 -221 104 -241 117 -275
151 -275 285 0 25 -8 76 -19 113 -21 77 -103 297 -111 297 -3 0 -66 -79 -140
-176z"/>
<path d="M5150 21553 c-45 -17 -73 -51 -116 -141 -51 -108 -74 -138 -121 -158
-52 -22 -111 -16 -218 22 -143 50 -243 56 -352 20 -99 -33 -190 -86 -226 -134
-26 -34 -29 -43 -24 -97 8 -111 100 -254 241 -377 44 -39 109 -95 144 -125
l62 -54 -31 -47 c-18 -26 -46 -63 -64 -82 -53 -57 -101 -134 -115 -184 -42
-153 45 -349 185 -415 43 -21 72 -25 205 -31 174 -8 206 -16 394 -101 139 -63
203 -81 249 -68 58 16 96 73 112 167 6 36 18 53 67 100 69 65 97 106 123 177
10 28 21 53 24 57 3 4 62 12 131 18 69 6 133 13 142 16 14 4 7 22 -46 107
-194 315 -219 359 -205 368 8 6 34 20 59 34 73 37 142 101 250 230 87 104 99
121 84 130 -9 6 -51 32 -93 59 -113 73 -185 103 -298 125 -56 11 -123 29 -147
40 -73 32 -142 104 -182 190 -20 42 -46 87 -58 99 -44 49 -125 74 -176 55z"/>
<path d="M26841 15778 c-50 -34 -71 -81 -71 -156 0 -116 36 -152 217 -221 543
-205 870 -378 1134 -600 308 -258 544 -663 628 -1076 37 -186 44 -268 36 -469
-10 -292 -11 -279 18 -328 38 -65 109 -102 188 -96 48 3 65 10 89 33 39 37 48
71 61 240 56 686 -172 1352 -621 1819 -296 307 -685 537 -1352 798 -214 83
-273 94 -327 56z"/>
<path d="M30480 14823 c-69 -2 -300 -10 -513 -18 -432 -16 -439 -17 -510 -90
-54 -55 -80 -133 -75 -220 6 -85 31 -139 89 -188 70 -60 89 -62 585 -43 241 9
490 16 552 16 l112 0 0 275 0 275 -57 -2 c-32 -1 -114 -4 -183 -5z"/>
<path d="M0 12050 l0 -269 32 -5 c18 -3 213 -8 433 -11 220 -3 522 -13 670
-20 350 -19 417 -19 463 1 152 63 193 296 75 433 -73 86 -112 94 -573 111
-392 14 -918 30 -1017 30 l-83 0 0 -270z"/>
<path d="M8009 11280 c-14 -4 -68 -32 -120 -63 -52 -30 -170 -96 -264 -147
-726 -397 -1065 -629 -1356 -926 -224 -231 -364 -444 -448 -685 -153 -435
-108 -924 129 -1400 66 -132 169 -301 219 -360 84 -100 217 -104 305 -10 24
25 31 42 34 88 4 58 4 59 -68 168 -269 408 -381 807 -325 1160 65 412 297 739
775 1092 214 157 383 260 910 553 190 105 359 202 376 215 146 112 10 369
-167 315z"/>
<path d="M2505 10140 c-28 -7 -152 -39 -485 -127 -74 -20 -200 -53 -280 -73
-354 -93 -1087 -285 -1205 -316 -72 -19 -221 -58 -332 -87 l-203 -52 0 -284
c0 -244 2 -282 15 -278 8 4 94 27 192 52 377 98 828 216 1053 276 129 34 309
81 400 104 1065 278 1044 272 1093 309 62 47 86 104 87 201 0 64 -5 90 -24
130 -28 59 -86 118 -138 140 -39 16 -121 18 -173 5z"/>
</g>
</svg>
